#!OML:ASF F:\VICON\USERDATA\INSTALL\rory3\rory3.ASF
:FULLY-SPECIFIED
:DEGREES
460
root 0.0698744 20.7551 -30.6943 -293.93 -46.5433 -23.4816
lowerback -17.9782 5.5308 31.2376
upperback -15.5534 1.9135 5.5949
thorax -7.30196 -2.12081 -9.20034
lowerneck -14.1444 4.40861 1.04092
upperneck 38.8622 8.24598 -7.68081
head 16.9328 2.07599 -2.24718
rclavicle 9.83984e-015 -1.35174e-014
rhumerus 70.4484 -14.5522 -38.9263
rradius 79.7383
rwrist -49.4674
rhand -25.4941 28.7657
rfingers 7.12502
rthumb 1.0344 -1.21154
lclavicle 9.83984e-015 -1.35174e-014
lhumerus 75.1555 20.06 2.97678
lradius 53.7551
lwrist -26.6037
lhand -13.7946 19.3077
lfingers 7.12502
lthumb 12.3272 48.9244
rfemur 0.216195 3.98274 -25.6509
rtibia 36.6645
rfoot -56.8402 -14.0145
rtoes 62.568
lfemur -39.9502 -15.3513 -3.5261
ltibia 5.64548e-014
lfoot 7.3464 62.4708
ltoes 38.7305
461
root 0.0388439 20.883 -30.8016 -295.629 -43.3078 -17.3323
lowerback -23.2635 6.58387 29.9809
upperback -16.3683 1.49431 4.81623
thorax -5.88087 -2.20676 -9.31483
lowerneck -14.3721 3.93134 0.671391
upperneck 39.3042 7.73016 -7.67607
head 17.1797 1.8113 -2.28583
rclavicle 8.8658e-014 -8.0309e-014
rhumerus 70.6292 -16.6919 -37.1242
rradius 79.1077
rwrist -48.5364
rhand -25.532 28.3755
rfingers 7.12502
rthumb 0.997799 -1.60188
lclavicle 8.8658e-014 -8.0309e-014
lhumerus 74.2904 21.4217 1.92187
lradius 52.9587
lwrist -25.3065
lhand -13.1304 19.5415
lfingers 7.12502
lthumb 12.9675 49.1185
rfemur -0.705839 -0.595552 -22.0077
rtibia 38.7969
rfoot -52.7352 -18.6794
rtoes 61.9387
lfemur -41.8332 -14.927 -6.99144
ltibia 3.97569e-014
lfoot 21.2186 61.3809
ltoes 43.1497
462
root -0.00820395 20.9961 -30.9211 -296.155 -39.4144 -12.2341
lowerback -29.3175 7.13893 29.0734
upperback -16.6908 0.0749988 4.80873
thorax -4.324 -2.73265 -8.8514
lowerneck -14.2677 4.08666 -0.747197
upperneck 39.4552 8.38766 -7.45692
head 17.2029 1.90392 -1.81304
rclavicle 5.96354e-015 1.11319e-014
rhumerus 72.1317 -17.7674 -35.9522
rradius 78.7359
rwrist -47.8306
rhand -26.1488 28.1469
rfingers 7.12502
rthumb 0.40205 -1.83242
lclavicle 5.96354e-015 1.11319e-014
lhumerus 71.0975 22.7103 -0.890561
lradius 51.8051
lwrist -23.5001
lhand -12.2263 19.6325
lfingers 7.12502
lthumb 13.8389 49.1521
rfemur -2.44076 -4.51967 -17.3175
rtibia 40.6883
rfoot -52.6936 -15.2628
rtoes 62.3991
lfemur -46.7556 -14.3951 -9.64006
ltibia 5.32245
lfoot 40.4077 52.1914
ltoes 18.001
463
root -0.0435108 21.0757 -31.0245 -294.186 -34.4479 -6.76291
lowerback -38.873 8.65173 27.778
upperback -16.2716 -1.32758 3.42433
thorax -1.95428 -3.16171 -8.92779
lowerneck -15.5424 3.74088 -0.798502
upperneck 40.3477 7.91311 -7.02646
head 17.9831 1.71808 -1.70817
rclavicle 4.96962e-016 -3.18055e-015
rhumerus 72.0142 -20.4051 -34.5208
rradius 78.4647
rwrist -47.9426
rhand -25.9724 27.7589
rfingers 7.12502
rthumb 0.572355 -2.22003
lclavicle 4.96962e-016 -3.18055e-015
lhumerus 70.0429 24.2657 -2.3512
lradius 51.0306
lwrist -22.7069
lhand -11.3244 19.1064
lfingers 7.12502
lthumb 14.708 48.5647
rfemur -6.80239 -9.50504 -11.2207
rtibia 42.7111
rfoot -52.026 -15.4803
rtoes 62.2588
lfemur -53.633 -14.7996 -11.1811
ltibia 10.3201
lfoot 42.0746 48.6072
ltoes 20.2151
464
root -0.0589047 21.1809 -31.1295 -294.736 -29.9368 -2.68477
lowerback -42.9576 8.39898 26.5271
upperback -16.367 -2.44299 2.78982
thorax -1.34672 -3.63113 -9.2757
lowerneck -16.2298 3.44472 -0.555005
upperneck 41.3946 7.38718 -6.7064
head 18.7554 1.55083 -1.73864
rclavicle 1.13407e-013 -3.49861e-014
rhumerus 71.1491 -22.5371 -32.8357
rradius 78.4366
rwrist -49.1317
rhand -25.597 26.8202
rfingers 7.12502
rthumb 0.934999 -3.15752
lclavicle 1.13407e-013 -3.49861e-014
lhumerus 68.9767 25.1764 -3.28955
lradius 51.0156
lwrist -22.7927
lhand -10.3271 18.5588
lfingers 7.12502
lthumb 15.6686 47.9443
rfemur -9.05402 -13.7996 -6.44109
rtibia 44.3849
rfoot -45.8949 -25.462
rtoes 60.4865
lfemur -56.1303 -16.3193 -12.4202
ltibia 14.9995
lfoot 46.0292 41.756
ltoes 15.9653
465
root -0.0645782 21.2752 -31.2526 -294.357 -25.1472 0.754625
lowerback -46.797 7.8624 25.8307
upperback -16.5953 -3.99663 2.56386
thorax -1.24996 -4.41155 -9.53716
lowerneck -16.5109 3.57432 -0.633964
upperneck 42.2093 7.61659 -6.46239
head 19.3433 1.6338 -1.59039
rclavicle 1.03766e-013 2.8625e-014
rhumerus 71.0211 -23.7344 -31.8959
rradius 78.5402
rwrist -51.2309
rhand -25.241 25.8479
rfingers 7.12502
rthumb 1.27884 -4.12797
lclavicle 1.03766e-013 2.8625e-014
lhumerus 66.2279 25.5217 -5.93104
lradius 51.1925
lwrist -21.8384
lhand -10.1775 18.719
lfingers 7.12502
lthumb 15.8127 48.0932
rfemur -12.4212 -18.4065 -1.13898
rtibia 45.6185
rfoot -46.0457 -23.6633
rtoes 61.31
lfemur -57.0558 -17.3416 -13.0679
ltibia 16.5188
lfoot 50.0531 35.585
ltoes 11.6986
466
root -0.0654788 21.3879 -31.39 -294.407 -20.5485 3.3595
lowerback -48.6312 6.98746 25.4385
upperback -16.9408 -5.31332 2.45121
thorax -1.638 -5.11265 -9.83074
lowerneck -16.6825 3.6544 -0.447728
upperneck 42.8199 7.76615 -6.47031
head 19.818 1.70602 -1.61993
rclavicle 8.34896e-015 4.77083e-015
rhumerus 70.5824 -25.0694 -30.905
rradius 78.6612
rwrist -54.1096
rhand -24.3516 24.24
rfingers 7.12502
rthumb 2.13777 -5.72901
lclavicle 8.34896e-015 4.77083e-015
lhumerus 63.5764 25.5668 -8.67372
lradius 51.4354
lwrist -20.7743
lhand -4.54922 15.6765
lfingers 7.12502
lthumb 21.2265 44.5343
rfemur -15.5699 -22.2645 4.03547
rtibia 46.4215
rfoot -41.3851 -27.2022
rtoes 61.9787
lfemur -58.3606 -18.7212 -12.6753
ltibia 20.6023
lfoot 51.5421 29.4531
ltoes 6.02454
467
root -0.124653 21.4161 -32.4125 -297.123 17.4724 38.2301
lowerback -43.1335 -20.3405 11.4613
upperback -23.7279 -29.9254 7.38501
thorax -9.43554 -16.9584 -4.63705
lowerneck -16.5642 3.71872 -0.286743
upperneck 43.2337 7.94734 -6.64365
head 20.1049 1.77846 -1.71629
rclavicle 7.31528e-014 6.04305e-014
rhumerus 69.9586 -26.3437 -29.6647
rradius 78.5782
rwrist -57.3367
rhand -23.5409 22.6797
rfingers 7.12502
rthumb 2.92075 -7.28003
lclavicle 7.31528e-014 6.04305e-014
lhumerus 61.288 25.3999 -10.8299
lradius 51.8949
lwrist -20.3401
lhand -8.26453 17.061
lfingers 7.12502
lthumb 17.6543 46.2795
rfemur -16.5299 -22.2188 38.7977
rtibia 46.6455
rfoot -74.6835 21.7329
rtoes 63.5012
lfemur -124.224 27.2776 156.066
ltibia -24.8635
lfoot -107.902 13.8906
ltoes 5.12454
468
root -0.153852 21.5132 -32.5125 -297.205 22.1743 40.696
lowerback -41.0725 -21.5668 11.1513
upperback -22.8597 -31.1839 6.49048
thorax -9.58331 -17.5413 -5.2453
lowerneck -16.702 3.41468 0.172292
upperneck 43.461 7.42316 -6.75938
head 20.2997 1.65019 -1.97449
rclavicle 8.18993e-014 -9.54166e-015
rhumerus 68.3986 -28.5271 -28.0952
rradius 78.5063
rwrist -60.7892
rhand -22.4931 21.0419
rfingers 7.12502
rthumb 3.93262 -8.90159
lclavicle 8.18993e-014 -9.54166e-015
lhumerus 60.679 25.8235 -11.4117
lradius 52.3435
lwrist -20.6889
lhand -8.76976 16.9524
lfingers 7.12502
lthumb 17.1681 46.2139
rfemur -19.5734 -27.6297 40.9126
rtibia 47.4669
rfoot -70.695 10.2523
rtoes 63.07
lfemur -55.5962 -28.892 -20.8671
ltibia 29.3275
lfoot -109.254 164.653
ltoes 5.98298
469
root -0.18461 21.6027 -32.6297 -296.886 27.1881 42.8188
lowerback -38.1638 -22.8475 11.4712
upperback -23.2376 -32.6106 7.10723
thorax -10.9995 -18.2132 -4.05127
lowerneck -16.1009 3.28722 -0.76356
upperneck 43.4263 7.80793 -7.25391
head 20.1326 1.60056 -1.9732
rclavicle -4.47266e-015 -9.70069e-014
rhumerus 68.2474 -29.5814 -26.3917
rradius 78.4462
rwrist -64.3545
rhand -21.3976 19.3856
rfingers 7.12502
rthumb 4.99048 -10.5356
lclavicle -4.47266e-015 -9.70069e-014
lhumerus 58.4204 25.2478 -11.95
lradius 52.4904
lwrist -20.7289
lhand -8.79316 16.4565
lfingers 7.12502
lthumb 17.1455 45.72
rfemur -23.1129 -31.7459 43.8768
rtibia 48.0659
rfoot -67.3312 3.07346
rtoes 62.8789
lfemur -56.3442 -30.0096 -16.9169
ltibia 34.175
lfoot -111.018 163.084
ltoes 7.32021
470
root -0.261573 21.7319 -32.7925 -298.139 27.7578 45.5185
lowerback -33.2929 -24.0298 8.39419
upperback -22.6697 -33.1646 5.897
thorax -11.336 -18.1888 -3.21311
lowerneck -16.3154 3.08886 -0.489029
upperneck 43.4004 7.46846 -7.26115
head 20.166 1.53212 -2.08814
rclavicle -8.05078e-015 1.66979e-013
rhumerus 67.1326 -31.4624 -25.3892
rradius 78.0259
rwrist -67.502
rhand -20.6428 18.2261
rfingers 7.12502
rthumb 5.71919 -11.6767
lclavicle -8.05078e-015 1.66979e-013
lhumerus 57.3509 25.458 -13.1861
lradius 52.8566
lwrist -20.8046
lhand -8.76454 16.4866
lfingers 7.12502
lthumb 17.1731 45.7477
rfemur -24.8527 -34.2816 40.7919
rtibia 49.7392
rfoot -64.004 -3.95081
rtoes 62.3819
lfemur -55.2968 -31.9069 -17.0156
ltibia 39.6033
lfoot -114.149 163.186
ltoes 7.05179
471
root -0.314737 21.7873 -32.8653 -296.705 33.4308 49.7126
lowerback -32.0161 -25.8635 8.29649
upperback -21.1676 -35.5106 4.99302
thorax -10.9278 -19.3221 -4.07995
lowerneck -16.4487 2.92929 -0.224447
upperneck 43.2674 7.12351 -7.15588
head 20.0872 1.47846 -2.13984
rclavicle -8.27938e-014 -3.81667e-014
rhumerus 66.185 -33.155 -24.745
rradius 77.4465
rwrist -70.1398
rhand -20.0427 17.2313
rfingers 7.12502
rthumb 6.29858 -12.6551
lclavicle -8.27938e-014 -3.81667e-014
lhumerus 56.4818 25.7725 -13.9608
lradius 53.224
lwrist -21.3161
lhand -8.25837 16.0476
lfingers 7.12502
lthumb 17.6602 45.2656
rfemur -28.5554 -35.5133 43.6376
rtibia 51.004
rfoot -61.8539 -14.827
rtoes 60.8989
lfemur -56.1832 -34.821 -11.9641
ltibia 44.1491
lfoot -116.273 162.275
ltoes 7.20733
472
root -0.35981 21.8319 -32.97 -295.588 37.2446 54.0427
lowerback -28.5542 -27.1389 6.98336
upperback -20.2672 -36.8919 4.08041
thorax -11.3273 -19.8376 -3.64964
lowerneck -17.3209 2.37885 -0.244268
upperneck 43.5373 6.39576 -7.17376
head 20.4822 1.19068 -2.30839
rclavicle -1.14699e-013 -1.59028e-014
rhumerus 64.2541 -35.0178 -22.2385
rradius 76.8838
rwrist -72.5072
rhand -19.3779 16.2107
rfingers 7.12502
rthumb 6.94039 -13.6555
lclavicle -1.14699e-013 -1.59028e-014
lhumerus 56.5118 25.9657 -12.8791
lradius 53.43
lwrist -21.8073
lhand -8.41175 16.12
lfingers 7.12502
lthumb 17.5126 45.3512
rfemur -31.4483 -37.2131 43.5228
rtibia 52.8611
rfoot -57.0603 -26.6314
rtoes 55.7179
lfemur -56.1035 -37.6572 -8.28484
ltibia 47.4175
lfoot -117.823 161.94
ltoes 6.35955
473
root -0.458511 21.9164 -33.0389 -295.871 37.7383 59.3392
lowerback -22.8609 -28.9328 1.92769
upperback -19.1244 -38.5429 2.49964
thorax -11.6254 -20.1881 -2.26485
lowerneck -17.0493 2.23851 -0.418986
upperneck 43.6426 6.20394 -7.02412
head 20.4384 1.12275 -2.24213
rclavicle -2.10712e-014 4.13472e-014
rhumerus 63.016 -35.9289 -20.8222
rradius 76.2758
rwrist -74.7581
rhand -19.4883 15.8528
rfingers 7.12502
rthumb 6.83376 -14.017
lclavicle -2.10712e-014 4.13472e-014
lhumerus 55.4588 25.5874 -13.1786
lradius 53.5561
lwrist -22.2126
lhand -8.53524 16.2963
lfingers 7.12502
lthumb 17.3938 45.538
rfemur -31.0909 -38.8896 37.4246
rtibia 54.8168
rfoot -47.9732 -40.5147
rtoes 45.3031
lfemur -52.5036 -40.7041 -9.66002
ltibia 49.7769
lfoot -118.998 162.968
ltoes 6.80079
